<svg width="90" height="48" viewBox="0 0 90 48" fill="none" xmlns="http://www.w3.org/2000/svg">
<g clip-path="url(#clip0_7_149)">
<path d="M55.3322 18.3449L54.814 22.3045H59.4777L60.0062 18.3449H62.5868L61.0012 30.2133H58.4413L59.1875 24.6424H54.4927L53.7569 30.2133H51.2074L52.4614 20.8091L50.5337 18.3554H55.3529L55.3322 18.3449ZM77.7076 20.7986L75.7799 18.3449H84.7445L84.4336 20.7986H77.7076V20.7986ZM80.0601 22.3993H84.216L83.9051 24.8319H79.7492L79.0652 30.2027H76.4846L77.4899 22.3888H80.0601V22.3993ZM88.6828 22.3993L87.6568 30.2133H85.1902L86.2369 22.3993H88.6828V22.3993ZM87.7293 18.3449C88.1542 18.3449 88.5066 18.4923 88.8072 18.7977C89.1077 19.1031 89.2528 19.4612 89.2528 19.8929C89.2528 20.3247 89.0973 20.6828 88.8072 20.9882C88.517 21.2935 88.1439 21.4515 87.7293 21.4515C87.3148 21.4515 86.952 21.2935 86.6515 20.9882C86.3509 20.6828 86.2058 20.3247 86.2058 19.8929C86.2058 19.4612 86.3509 19.1031 86.6515 18.7977C86.952 18.4923 87.3044 18.3449 87.7293 18.3449ZM66.1001 18.3449C66.525 18.3449 66.8774 18.4923 67.178 18.7977C67.4785 19.1031 67.6236 19.4612 67.6236 19.8929C67.6236 20.3247 67.4681 20.6828 67.178 20.9882C66.8774 21.2935 66.5147 21.4515 66.1001 21.4515C65.6856 21.4515 65.3228 21.2935 65.0223 20.9882C64.7217 20.6828 64.5767 20.3247 64.5767 19.8929C64.5767 19.4612 64.7217 19.1031 65.0223 18.7977C65.3228 18.4923 65.6752 18.3449 66.1001 18.3449V18.3449ZM67.0536 22.3993L66.0276 30.2133H63.561L64.6077 22.3993H67.0536V22.3993ZM69.5098 23.5472H74.5051L74.215 25.8324H69.2093L69.5098 23.5472ZM1.85511 24C1.85511 11.7841 11.5971 1.88504 23.619 1.88504C35.641 1.88504 45.383 11.7841 45.383 24C45.383 36.2159 35.641 46.115 23.619 46.115C11.5971 46.115 1.85511 36.2159 1.85511 24ZM47.2381 24C47.2381 10.7521 36.6567 0 23.619 0C10.5814 0 0 10.7521 0 24C0 37.2479 10.5814 48 23.619 48C36.6567 48 47.2381 37.2479 47.2381 24Z" fill="#F7F7F7"/>
<path fill-rule="evenodd" clip-rule="evenodd" d="M25.4741 27.4437C25.2046 27.6122 24.9663 27.7386 24.7486 27.8228C24.531 27.9071 24.3444 27.9703 24.1786 28.0019C24.0128 28.0335 23.8781 28.0545 23.7641 28.044C23.6086 28.0335 23.4946 28.0124 23.4117 27.9808C23.3288 27.9492 23.277 27.9282 23.2666 27.9176H23.2459C22.3857 27.2963 24.2201 24.7267 24.8212 24.1054C25.0388 23.8843 25.2564 23.7263 25.4534 23.6315C25.6503 23.5368 25.8472 23.4841 26.0337 23.4841C26.2203 23.4841 26.3965 23.4946 26.5726 23.5368C26.7385 23.5789 26.8732 23.6737 26.9872 23.8421C27.1012 24.0001 27.1841 24.2002 27.2256 24.4424C27.267 24.7162 27.2463 25.0216 27.1634 25.3691C27.0701 25.7061 26.8939 26.0642 26.6245 26.4117C26.355 26.7698 25.9716 27.1067 25.4741 27.4332V27.4437ZM23.619 3.01196C35.0191 3.01196 44.2636 12.4056 44.2636 23.9896C44.2636 35.5736 35.0191 44.9777 23.619 44.9777C21.4633 44.9777 19.3802 44.6407 17.4214 44.0194C19.2766 39.0278 20.8622 33.9729 22.4375 28.8865C22.4375 28.9075 22.4582 28.9181 22.4686 28.9286C22.479 28.9391 22.4997 28.9497 22.4997 28.9602C22.5204 28.9812 22.5826 29.0128 22.6655 29.0655C22.7484 29.1181 22.8728 29.1708 23.0179 29.2235C23.1733 29.2761 23.3495 29.3077 23.5568 29.3182C23.9506 29.3498 24.3652 29.3077 24.7901 29.1708C25.215 29.0339 25.6606 28.8233 26.127 28.5284C26.583 28.2441 26.9665 27.9176 27.2981 27.5701C27.6298 27.2226 27.8888 26.8435 28.0858 26.4433C28.2619 26.0852 28.3863 25.7167 28.4381 25.3481C28.5003 24.9795 28.5107 24.6109 28.4485 24.2529C28.407 24.0212 28.3345 23.8 28.2516 23.5894C28.1583 23.3788 28.0547 23.1998 27.9199 23.0313C27.7748 22.8522 27.609 22.7048 27.4225 22.5784C27.2359 22.4626 27.039 22.3784 26.8317 22.3257C26.4586 22.2309 26.0959 22.2099 25.7435 22.252C25.3912 22.2941 25.0595 22.3994 24.759 22.5679C24.2408 22.8522 23.7641 23.3261 23.3184 23.9685C23.3495 23.6947 23.391 23.4314 23.4324 23.1576C23.4739 22.8838 23.5153 22.5995 23.5464 22.3152C23.5672 22.1993 23.5464 22.094 23.505 21.9887C23.4635 21.8834 23.391 21.7991 23.3081 21.7254C23.2148 21.6517 23.1111 21.6096 22.9971 21.5885C22.8831 21.5885 22.7795 21.5885 22.6759 21.6412C22.5826 21.6833 22.4893 21.757 22.4271 21.8413C22.3546 21.9255 22.3235 22.0308 22.3028 22.1572C22.0644 23.8632 22.0333 25.0111 20.9451 26.3696C20.7275 26.6434 20.5202 26.8751 20.344 27.0436C20.1678 27.2226 20.0124 27.349 19.8777 27.4437C19.7222 27.5701 19.5875 27.6649 19.4838 27.7175C19.1626 27.886 19.0278 27.865 18.9967 27.4543C18.9967 27.3279 18.9967 27.1699 19.0175 26.9698C19.0278 26.7276 19.09 26.3906 19.204 25.9589C19.318 25.5271 19.5046 24.9795 19.774 24.3266C19.8258 24.2107 19.8362 24.1054 19.8258 24.0001C19.8155 23.8948 19.774 23.7895 19.7118 23.7052C19.6496 23.6105 19.5564 23.5473 19.4527 23.4946C19.3387 23.442 19.2351 23.4314 19.1211 23.442C19.0071 23.4525 18.9138 23.4946 18.8205 23.5578C18.7273 23.621 18.6651 23.7052 18.6133 23.8211C18.4889 24.116 18.3335 24.4319 18.1573 24.7478C17.9811 25.0637 17.7842 25.3902 17.5769 25.7061C17.3696 26.0221 17.152 26.3169 16.9343 26.6013C16.5198 27.0962 16.1674 27.4648 15.8772 27.6859C15.5767 27.9071 15.359 28.0229 15.2036 28.0229C15.1725 28.0229 15.1518 28.0229 15.1207 28.0019C15.0896 27.9913 15.0481 27.9492 14.9963 27.8755C14.9756 27.8439 14.9549 27.7912 14.9341 27.6965C14.9134 27.6017 14.903 27.4543 14.903 27.2647C14.903 27.0751 14.9445 26.8329 15.017 26.517C15.0896 26.2116 15.2036 25.8325 15.3694 25.3797C15.5352 24.9268 15.7632 24.3898 16.0638 23.7684C16.1156 23.6526 16.1363 23.5473 16.126 23.4314C16.1156 23.3156 16.0845 23.2208 16.0223 23.126C15.9601 23.0313 15.8772 22.9576 15.784 22.9049C15.67 22.8522 15.5663 22.8417 15.4523 22.8522C15.3383 22.8522 15.245 22.8944 15.1518 22.9576C15.0585 23.0207 14.986 23.105 14.9341 23.2103C14.675 23.7579 14.4574 24.2739 14.2709 24.7583C14.0843 25.2428 13.9392 25.6745 13.8356 26.0747C13.7008 26.6223 13.6387 27.1067 13.6594 27.5069C13.6801 27.9176 13.7734 28.2651 13.9392 28.5389C14.0947 28.7812 14.2709 28.9707 14.4885 29.0971C14.7061 29.2235 14.9341 29.2866 15.1932 29.2972H15.3176C15.6803 29.2656 16.0638 29.1181 16.468 28.8338C16.8722 28.5495 17.2971 28.1388 17.7427 27.6122C17.7738 27.8755 17.8256 28.1072 17.9085 28.2862C17.9914 28.4652 18.0847 28.6127 18.1884 28.7285C18.292 28.8443 18.3956 28.9286 18.5096 28.9812C18.6444 29.055 18.7998 29.1076 18.9967 29.1287C19.1936 29.1497 19.4216 29.1287 19.6807 29.0339C19.9398 28.9497 20.2404 28.7812 20.572 28.5495C20.8 28.381 21.0384 28.1598 21.2768 27.9176C20.0642 33.2673 17.9604 38.4486 16.24 43.6192C8.4775 40.6074 2.95361 32.9619 2.95361 24.0106C2.96398 12.4161 12.2188 3.01196 23.619 3.01196V3.01196ZM7.55513 29.2235C7.23385 29.1708 6.92294 29.076 6.62239 28.9497C6.32184 28.8128 6.05238 28.6337 5.80365 28.402C5.6171 28.223 5.45128 28.0124 5.30619 27.7913C5.1611 27.5596 5.0471 27.3279 4.95382 27.0751C4.86055 26.8224 4.79836 26.5591 4.76727 26.2853C4.73618 26.0115 4.74655 25.7483 4.77764 25.485C4.83982 24.9795 5.016 24.5161 5.30619 24.116C5.59638 23.7158 5.9902 23.3788 6.4773 23.1155C6.58093 23.0629 6.68457 23.0418 6.79857 23.0418C6.91257 23.0418 7.01621 23.0839 7.10949 23.1366C7.20276 23.1998 7.27531 23.2735 7.33749 23.3788C7.38931 23.4841 7.41004 23.5894 7.41004 23.7052C7.41004 23.8211 7.37894 23.9264 7.31676 24.0212C7.26494 24.116 7.18203 24.1897 7.06803 24.2529C6.51875 24.5477 6.1042 25.0427 6.02129 25.6745C5.97983 26.001 6.02129 26.3275 6.13529 26.6434C6.24929 26.9593 6.43584 27.2436 6.68457 27.4964C6.92294 27.7175 7.24422 27.865 7.6484 27.9492C8.06295 28.0335 8.53969 28.0545 9.08897 28.0019C9.42061 27.9703 9.73152 27.9176 10.0321 27.8439C10.3326 27.7702 10.6021 27.6965 10.8404 27.6122C11.0788 27.5174 11.255 27.4332 11.3897 27.349C11.6695 27.1805 11.8872 26.9804 12.0426 26.7382C12.1981 26.4959 12.2914 26.2221 12.3328 25.9273C12.3639 25.6324 12.3225 25.3481 12.2188 25.0637C12.1152 24.7794 11.9494 24.5267 11.7214 24.3055C11.4623 24.0633 11.2032 23.8422 10.9337 23.6421C10.6643 23.442 10.3948 23.2524 10.1253 23.0839C9.84552 22.9154 9.57606 22.7364 9.28588 22.5784C9.0786 22.4521 8.87133 22.3257 8.66405 22.1993C8.45678 22.073 8.23914 21.9361 8.03186 21.7886C7.83495 21.6517 7.65877 21.5043 7.49295 21.3463C7.32713 21.1778 7.18203 20.9988 7.05767 20.7987C6.91257 20.5986 6.79857 20.388 6.71566 20.1669C6.62239 19.9457 6.56021 19.714 6.52911 19.4718C6.48766 19.2296 6.46693 18.9558 6.48766 18.6399C6.50839 18.3239 6.5913 17.9764 6.72603 17.5973C6.87112 17.2182 7.09912 16.818 7.41004 16.3968C7.63804 16.1019 7.89713 15.8176 8.21841 15.5754C8.52932 15.3226 8.88169 15.1015 9.25479 14.9225C9.59679 14.7645 9.9388 14.6276 10.3015 14.5328C10.6643 14.438 11.0166 14.3748 11.3794 14.3643C11.8975 14.3327 12.3536 14.3854 12.7577 14.5223C13.1619 14.6486 13.4832 14.8487 13.7319 15.112C13.9392 15.3332 14.0636 15.5964 14.1154 15.9124C14.1672 16.2178 14.1569 16.5547 14.0636 16.9339C13.991 17.2182 13.8978 17.492 13.7734 17.7763C13.6594 18.0607 13.535 18.3345 13.4003 18.6188C13.307 18.8189 13.2137 19.0085 13.1205 19.2085C13.0272 19.4086 12.9547 19.5877 12.9028 19.7667C12.851 19.9457 12.8199 20.0931 12.8096 20.2195C12.8096 20.3985 12.7474 20.546 12.623 20.6618C12.509 20.7776 12.3639 20.8408 12.1877 20.8514C12.0115 20.8514 11.8561 20.7776 11.7317 20.6618C11.6177 20.546 11.5555 20.388 11.5452 20.2195C11.5452 19.9984 11.5763 19.7667 11.6488 19.535C11.711 19.3033 11.8043 19.0611 11.8975 18.8189C12.0012 18.5767 12.1152 18.3239 12.2396 18.0712C12.3328 17.8816 12.4261 17.6816 12.5194 17.4709C12.6126 17.2603 12.6956 17.0602 12.7577 16.8707C12.8303 16.6706 12.8614 16.5021 12.8717 16.3441C12.8821 16.1967 12.8614 16.0809 12.7888 15.9966C12.6748 15.8808 12.4883 15.786 12.2499 15.7228C12.0115 15.6596 11.7317 15.6386 11.4208 15.6491C11.1824 15.6596 10.9337 15.7017 10.6643 15.7649C10.3948 15.8281 10.1253 15.9229 9.84552 16.0493C9.5657 16.1756 9.30661 16.3231 9.04751 16.5126C8.79878 16.7022 8.57078 16.9233 8.3635 17.1866C8.09404 17.5447 7.9075 17.8922 7.80386 18.2502C7.70022 18.6083 7.66913 18.9558 7.72095 19.2928C7.77277 19.5877 7.87641 19.8509 8.04223 20.1037C8.20805 20.3564 8.41532 20.567 8.68478 20.7566C8.89205 20.8935 9.08897 21.0199 9.29624 21.1462C9.50352 21.2726 9.70043 21.399 9.89734 21.5148C10.1875 21.6833 10.4881 21.8623 10.7886 22.0519C11.0892 22.2414 11.3897 22.4415 11.6799 22.6627C11.9805 22.8838 12.2706 23.1366 12.5608 23.4209C12.9339 23.779 13.2034 24.2002 13.3796 24.6636C13.5558 25.1269 13.6076 25.6113 13.5558 26.1063C13.5039 26.5907 13.3381 27.0436 13.079 27.4543C11.9805 29.1603 9.35842 29.571 7.5344 29.2656L7.55513 29.2235ZM32.9567 23.0839C32.8531 23.0839 32.7287 23.105 32.5836 23.1366C32.4489 23.1787 32.3038 23.2524 32.1173 23.3577C31.9411 23.463 31.7338 23.6315 31.5162 23.8421C31.2985 24.0633 31.0602 24.3476 30.8011 24.7057C30.6871 24.8637 30.5834 25.0216 30.4902 25.169C30.3969 25.3165 30.314 25.4639 30.2311 25.6008C30.9358 25.4218 31.5058 25.2217 31.9514 25.0006C32.3971 24.7794 32.7391 24.5477 32.9671 24.3055C33.1951 24.0633 33.3298 23.8422 33.3609 23.621C33.3816 23.4946 33.3816 23.3893 33.3609 23.3051C33.3402 23.2208 33.3091 23.1682 33.278 23.1471C33.2469 23.126 33.2055 23.1155 33.1433 23.0945C33.0915 23.0839 33.0189 23.0734 32.936 23.0734L32.9567 23.0839ZM38.2008 29.3393C37.9728 29.3393 37.7863 29.3077 37.6308 29.2445C37.4753 29.1919 37.3406 29.1181 37.237 29.0234C37.1333 28.9391 37.0504 28.8443 36.9986 28.7496C36.781 28.4442 36.7188 28.044 36.781 27.5596C36.8121 27.3384 36.8639 27.0857 36.9572 26.8119C37.0504 26.5381 37.1748 26.2432 37.3302 25.9167C37.4857 25.5903 37.6101 25.2954 37.693 25.0532C37.7759 24.811 37.7966 24.6109 37.7759 24.4529C37.7759 24.3898 37.7448 24.3266 37.7033 24.2423C37.6619 24.1581 37.5893 24.0633 37.4857 23.958C37.3821 23.8527 37.2266 23.7263 37.0193 23.5894C36.9261 23.8106 36.8121 24.0422 36.6981 24.3055C36.5841 24.5583 36.4701 24.811 36.3561 25.0637C35.9622 25.9378 35.6202 26.8645 34.9984 27.6017C34.6357 28.044 34.2004 28.4126 33.7133 28.7285C33.4542 28.897 33.1744 29.0444 32.8945 29.1603C32.6147 29.2761 32.3245 29.3709 32.0447 29.4341C31.7545 29.4973 31.4851 29.5289 31.2156 29.5289C31.0083 29.5289 30.7907 29.5078 30.5627 29.4551C30.3347 29.4025 30.1067 29.3288 29.8787 29.2235C29.6507 29.1181 29.4434 28.9812 29.2465 28.8022C29.06 28.6232 28.8941 28.4126 28.7698 28.1704C28.5003 27.6438 28.4485 27.033 28.6143 26.338C28.6972 25.9905 28.832 25.6113 29.0289 25.2112C29.2258 24.811 29.4745 24.4003 29.7854 23.958C30.5627 22.8628 31.3814 22.1783 32.2313 21.9045C32.4696 21.8307 32.6873 21.7991 32.8842 21.7991C33.0811 21.7991 33.2573 21.8097 33.4024 21.8518C33.5578 21.8834 33.6822 21.9255 33.7755 21.9782C33.8687 22.0308 33.9413 22.0624 33.9827 22.094C34.1175 22.1888 34.2315 22.2941 34.3247 22.431C34.418 22.5679 34.5009 22.7153 34.5528 22.8733C34.6149 23.0313 34.646 23.1892 34.6668 23.3683C34.6668 23.5473 34.6668 23.7263 34.6253 23.9053C34.5942 24.0844 34.5217 24.2739 34.418 24.4951C34.3144 24.7162 34.1486 24.9374 33.9413 25.169C33.7237 25.4007 33.4438 25.6324 33.0811 25.8641C32.7184 26.0958 32.2727 26.3064 31.7338 26.5065C31.1949 26.7066 30.542 26.8751 29.7854 27.0225C29.7854 27.1278 29.7854 27.2331 29.7958 27.3279C29.8165 27.4227 29.8476 27.5174 29.8891 27.5912C29.972 27.7386 30.086 27.865 30.2311 27.9597C30.3762 28.0545 30.542 28.1388 30.7182 28.1809C30.8943 28.2336 31.0602 28.2546 31.226 28.2546C31.4747 28.2546 31.7545 28.2125 32.0758 28.1177C32.3971 28.0229 32.7184 27.8755 33.05 27.6754C33.3816 27.4648 33.6926 27.2015 33.9931 26.8645C34.9673 25.7693 35.4233 24.1265 36.014 22.7891C35.983 22.7469 35.9622 22.6943 35.9311 22.6416C35.9104 22.589 35.8897 22.5468 35.869 22.4942C35.8068 22.3257 35.786 22.1467 35.7964 21.9782C35.8068 21.7991 35.8586 21.6412 35.9415 21.4832C36.0244 21.3253 36.1281 21.1989 36.2628 21.1146C36.3975 21.0199 36.5322 20.9672 36.6773 20.9461C36.8224 20.9251 36.9675 20.9461 37.1022 21.0199C37.1541 21.0409 37.2266 21.0936 37.2992 21.1568C37.3821 21.2305 37.4442 21.3253 37.5064 21.4516C37.5582 21.5885 37.5893 21.757 37.579 21.9571C37.579 22.0308 37.579 22.1045 37.5583 22.1783C37.5479 22.252 37.5272 22.3257 37.5064 22.4099C37.9728 22.6943 38.3252 22.9891 38.5739 23.2945C38.8226 23.5999 38.9677 23.9159 39.0299 24.2529C39.0714 24.4951 39.061 24.7478 39.0299 25.0006C38.9884 25.2533 38.9159 25.506 38.8123 25.7483C38.6983 26.0431 37.5375 28.0756 38.3252 28.0756C38.5532 28.0651 38.8019 27.9913 39.0714 27.8544C39.3408 27.7281 39.6103 27.549 39.8797 27.3279C40.1492 27.1067 40.4187 26.854 40.6674 26.5591C40.9161 26.2748 41.1441 25.9589 41.3514 25.6219C41.4136 25.5166 41.4861 25.4429 41.5898 25.3902C41.683 25.3375 41.7867 25.3165 41.9007 25.3165C42.0147 25.3165 42.1183 25.3481 42.2219 25.4113C42.3256 25.4744 42.3981 25.5482 42.4499 25.6535C42.5018 25.7483 42.5225 25.8536 42.5225 25.9694C42.5225 26.0852 42.4914 26.18 42.4292 26.2853C42.1909 26.6855 41.9318 27.0541 41.6208 27.4121C41.3203 27.7597 40.999 28.0651 40.657 28.3389C40.2736 28.6548 39.8901 28.897 39.5066 29.0655C39.1232 29.234 38.7604 29.3393 38.3977 29.3604H38.2215L38.2008 29.3393Z" fill="#F7F7F7"/>
</g>
<defs>
<clipPath id="clip0_7_149">
<rect width="89.2632" height="48" fill="white"/>
</clipPath>
</defs>
</svg>
